<?xml version="1.0" encoding="utf-8"?>
<!-- Generator: Adobe Illustrator 16.0.0, SVG Export Plug-In . SVG Version: 6.00 Build 0)  -->
<!DOCTYPE svg PUBLIC "-//W3C//DTD SVG 1.1//EN" "http://www.w3.org/Graphics/SVG/1.1/DTD/svg11.dtd">
<svg version="1.1" id="Layer_1" xmlns="http://www.w3.org/2000/svg" xmlns:xlink="http://www.w3.org/1999/xlink" x="0px" y="0px"
	 width="39px" height="39px" viewBox="0 0 39 39" enable-background="new 0 0 39 39" xml:space="preserve">
<g>
	<path fill="#666666" d="M20.27,1C13.374,1,8,6.27,8,12.946c0,6.981,12.27,25.744,12.27,25.744s12.268-18.896,12.268-25.744
		C32.537,6.28,27.264,1,20.27,1 M20.27,4.382c5.015,0,8.795,3.682,8.795,8.564c0,0.803-0.41,4.173-5.703,13.81
		c-1.001,1.816-2.035,3.615-3.101,5.395c-1.062-1.765-2.09-3.549-3.086-5.351c-5.147-9.34-5.702-12.8-5.702-13.854
		c0-2.33,0.9-4.493,2.533-6.087C15.643,5.262,17.868,4.382,20.27,4.382"/>
	<path fill="#666666" d="M19.265,35.393C15.373,28.977,8.736,17.045,8.736,12.263c0-5.903,4.627-10.527,10.534-10.527
		c6.003,0,10.53,4.526,10.53,10.527C29.8,16.953,23.157,28.941,19.265,35.393"/>
	<path d="M19.27,0C12.374,0,7,5.41,7,12.264c0,7.167,12.27,26.429,12.27,26.429s12.267-19.399,12.267-26.429
		C31.537,5.422,26.264,0,19.27,0 M19.27,3.473c5.014,0,8.794,3.779,8.794,8.79c0,0.825-0.41,4.285-5.703,14.178
		c-1,1.863-2.034,3.71-3.101,5.537c-1.062-1.811-2.091-3.642-3.086-5.49c-5.147-9.59-5.702-13.142-5.702-14.224
		c0-2.393,0.9-4.612,2.533-6.249C14.643,4.375,16.868,3.473,19.27,3.473"/>
	<path d="M22.462,11.948c0,1.804-1.462,3.266-3.267,3.266c-1.804,0-3.266-1.462-3.266-3.266c0-1.804,1.462-3.267,3.266-3.267
		C21,8.682,22.462,10.144,22.462,11.948"/>
</g>
</svg>
